# 3ds Max Wavefront OBJ Exporter v0.97b - (c)2007 guruware
# File Created: 24.09.2019 13:09:12

mtllib Area_juego.mtl

#
# object Area_low
#

v  8.0009 0.4220 -2.9121
v  6.5224 0.4220 -5.4729
v  0.0000 0.4220 0.0000
v  4.2572 0.4220 -7.3736
v  1.4785 0.4220 -8.3850
v  -1.4785 0.4220 -8.3850
v  -4.2572 0.4220 -7.3736
v  -6.5223 0.4220 -5.4729
v  -8.0009 0.4220 -2.9121
v  -8.5143 0.4220 -0.0000
v  -8.0009 0.4220 2.9121
v  -6.5223 0.4220 5.4729
v  -4.2572 0.4220 7.3736
v  -1.4785 0.4220 8.3850
v  1.4785 0.4220 8.3850
v  4.2572 0.4220 7.3736
v  6.5224 0.4220 5.4729
v  8.0009 0.4220 2.9121
v  8.5143 0.4220 0.0000
v  4.5000 0.9179 7.7942
v  6.8944 0.9179 5.7851
v  6.5224 0.9179 5.4729
v  4.2572 0.9179 7.3736
v  8.4572 0.9179 3.0782
v  8.0009 0.9179 2.9121
v  9.0000 0.9179 0.0000
v  8.5143 0.9179 0.0000
v  8.4572 0.9179 -3.0782
v  8.0009 0.9179 -2.9121
v  6.8944 0.9179 -5.7851
v  6.5224 0.9179 -5.4729
v  4.5000 0.9179 -7.7942
v  4.2572 0.9179 -7.3736
v  1.5628 0.9179 -8.8633
v  1.4785 0.9179 -8.3850
v  -1.5628 0.9179 -8.8633
v  -1.4785 0.9179 -8.3850
v  -4.5000 0.9179 -7.7942
v  -4.2572 0.9179 -7.3736
v  -6.8944 0.9179 -5.7851
v  -6.5223 0.9179 -5.4729
v  -8.4572 0.9179 -3.0782
v  -8.0009 0.9179 -2.9121
v  -9.0000 0.9179 -0.0000
v  -8.5143 0.9179 -0.0000
v  -8.4572 0.9179 3.0782
v  -8.0009 0.9179 2.9121
v  -6.8944 0.9179 5.7851
v  -6.5223 0.9179 5.4729
v  -4.5000 0.9179 7.7942
v  -4.2572 0.9179 7.3736
v  -1.5628 0.9179 8.8633
v  -1.4785 0.9179 8.3850
v  1.5628 0.9179 8.8633
v  1.4785 0.9179 8.3850
v  6.8944 -0.9664 5.7851
v  4.5000 -0.9664 7.7942
v  8.4572 -0.9664 3.0782
v  9.0000 -0.9664 -0.0000
v  8.4572 -0.9664 -3.0782
v  6.8944 -0.9664 -5.7851
v  4.5000 -0.9664 -7.7942
v  1.5628 -0.9664 -8.8633
v  -1.5628 -0.9664 -8.8633
v  -4.5000 -0.9664 -7.7942
v  -6.8944 -0.9664 -5.7851
v  -8.4572 -0.9664 -3.0782
v  -9.0000 -0.9664 -0.0000
v  -8.4572 -0.9664 3.0782
v  -6.8944 -0.9664 5.7851
v  -4.5000 -0.9664 7.7942
v  -1.5628 -0.9664 8.8633
v  1.5628 -0.9664 8.8633
v  3.4249 0.7801 6.2172
v  3.8420 0.2689 6.1837
v  3.6832 0.2154 5.7174
v  3.2653 0.6748 5.8170
v  3.2387 0.3036 5.4677
v  3.1193 0.6592 5.6374
v  2.7473 0.3765 5.4935
v  2.8189 0.6418 5.5269
v  2.5149 0.7414 5.6381
v  2.1868 0.3428 5.8142
v  2.2471 0.7739 5.9304
v  1.9870 0.3006 6.0700
v  2.2590 0.8063 6.3755
v  1.9690 0.3471 6.4332
v  2.4534 0.3851 6.8143
v  2.4750 0.8687 6.7034
v  2.9631 0.8449 6.8279
v  2.9480 0.3118 6.9765
v  3.2654 0.8258 6.6839
v  3.5163 0.2522 6.7794
v  2.5673 0.9326 5.7320
v  2.4047 0.8956 5.9923
v  2.5030 0.9397 6.3579
v  2.6341 0.9664 6.4661
v  2.8564 0.9267 6.5279
v  2.9916 0.9381 6.4454
v  3.1221 0.9032 6.1295
v  3.0375 0.7075 5.9576
v  2.7183 0.9185 6.1283
# 102 vertices

vn 0.0000 1.0000 0.0000
vn 0.0000 1.0000 -0.0000
vn 0.7660 -0.0000 0.6428
vn 0.5000 -0.0000 0.8660
vn -0.7660 0.0000 -0.6428
vn -0.5000 0.0000 -0.8660
vn 0.9397 -0.0000 0.3420
vn -0.9397 0.0000 -0.3420
vn 1.0000 -0.0000 0.0000
vn -1.0000 0.0000 -0.0000
vn 0.9397 0.0000 -0.3420
vn -0.9397 -0.0000 0.3420
vn 0.7660 0.0000 -0.6428
vn -0.7660 -0.0000 0.6428
vn 0.5000 0.0000 -0.8660
vn -0.5000 -0.0000 0.8660
vn 0.1736 0.0000 -0.9848
vn -0.1736 -0.0000 0.9848
vn -0.1736 0.0000 -0.9848
vn 0.1736 -0.0000 0.9848
vn 0.6127 0.7864 -0.0783
vn 0.7836 0.6195 -0.0473
vn 0.6327 0.6148 -0.4708
vn 0.4800 0.7659 -0.4277
vn 0.3876 0.4845 -0.7842
vn 0.3509 0.7053 -0.6160
vn -0.1968 0.1923 -0.9614
vn -0.0537 0.3935 -0.9178
vn -0.4126 0.4309 -0.8025
vn -0.6754 0.2264 -0.7019
vn -0.7478 0.5616 -0.3540
vn -0.8583 0.4384 -0.2666
vn -0.7124 0.6639 0.2274
vn -0.8482 0.4630 0.2574
vn -0.4741 0.3035 0.8265
vn -0.4108 0.6681 0.6204
vn 0.0851 0.6554 0.7505
vn 0.0845 0.2758 0.9575
vn 0.4978 0.7042 0.5063
vn 0.6589 0.4384 0.6113
vn -0.0934 0.9003 -0.4252
vn -0.4123 0.8994 -0.1451
vn -0.3045 0.9525 -0.0017
vn -0.0752 0.9934 0.0861
vn 0.0558 0.9838 0.1701
vn 0.1417 0.9874 0.0700
vn 0.1870 0.9180 -0.3497
vn 0.2749 0.8891 -0.3660
vn 0.1145 0.9793 -0.1671
# 49 vertex normals

vt 0.7433 0.1530 0.0000
vt 0.8552 0.2159 0.0000
vt 0.6211 0.5019 0.0000
vt 0.9389 0.3132 0.0000
vt 0.9843 0.4332 0.0000
vt 0.9858 0.5616 0.0000
vt 0.9434 0.6827 0.0000
vt 0.8621 0.7821 0.0000
vt 0.7517 0.8476 0.0000
vt 0.6256 0.8714 0.0000
vt 0.4989 0.8507 0.0000
vt 0.3870 0.7879 0.0000
vt 0.3033 0.6905 0.0000
vt 0.2579 0.5705 0.0000
vt 0.2563 0.4421 0.0000
vt 0.2988 0.3210 0.0000
vt 0.3801 0.2216 0.0000
vt 0.4905 0.1561 0.0000
vt 0.6166 0.1323 0.0000
vt 0.2334 0.0888 0.0000
vt 0.2737 0.1221 0.0000
vt 0.2674 0.1272 0.0000
vt 0.2293 0.0958 0.0000
vt 0.3000 0.1669 0.0000
vt 0.2923 0.1696 0.0000
vt 0.3091 0.2178 0.0000
vt 0.3009 0.2178 0.0000
vt 0.3000 0.2687 0.0000
vt 0.2923 0.2660 0.0000
vt 0.2737 0.3135 0.0000
vt 0.2674 0.3083 0.0000
vt 0.2334 0.3467 0.0000
vt 0.2293 0.3398 0.0000
vt 0.1839 0.3644 0.0000
vt 0.1825 0.3565 0.0000
vt 0.1314 0.3644 0.0000
vt 0.1328 0.3565 0.0000
vt 0.0819 0.3467 0.0000
vt 0.0860 0.3398 0.0000
vt 0.0416 0.3135 0.0000
vt 0.0479 0.3083 0.0000
vt 0.0154 0.2687 0.0000
vt 0.0230 0.2660 0.0000
vt 0.0062 0.2178 0.0000
vt 0.0144 0.2178 0.0000
vt 0.0154 0.1669 0.0000
vt 0.0230 0.1696 0.0000
vt 0.0417 0.1221 0.0000
vt 0.0479 0.1272 0.0000
vt 0.0820 0.0888 0.0000
vt 0.0860 0.0958 0.0000
vt 0.1314 0.0711 0.0000
vt 0.1328 0.0790 0.0000
vt 0.1840 0.0711 0.0000
vt 0.1826 0.0790 0.0000
vt 0.4078 0.9225 0.0000
vt 0.4082 0.8793 0.0000
vt 0.4800 0.8799 0.0000
vt 0.4795 0.9232 0.0000
vt 0.8305 0.0006 0.0000
vt 0.8860 0.0004 0.0000
vt 0.8860 0.0546 0.0000
vt 0.8305 0.0547 0.0000
vt 0.3360 0.9219 0.0000
vt 0.3364 0.8786 0.0000
vt 0.7750 0.0008 0.0000
vt 0.7750 0.0549 0.0000
vt 0.9123 0.9919 0.0000
vt 0.9127 0.9486 0.0000
vt 0.9845 0.9492 0.0000
vt 0.9841 0.9925 0.0000
vt 0.7195 0.0010 0.0000
vt 0.7195 0.0551 0.0000
vt 0.8406 0.9912 0.0000
vt 0.8410 0.9479 0.0000
vt 0.6641 0.0012 0.0000
vt 0.6641 0.0552 0.0000
vt 0.7688 0.9905 0.0000
vt 0.7692 0.9472 0.0000
vt 0.6087 0.0014 0.0000
vt 0.6087 0.0554 0.0000
vt 0.6970 0.9898 0.0000
vt 0.6974 0.9466 0.0000
vt 0.5533 0.0015 0.0000
vt 0.5533 0.0555 0.0000
vt 0.6252 0.9892 0.0000
vt 0.6256 0.9459 0.0000
vt 0.4979 0.0015 0.0000
vt 0.4979 0.0555 0.0000
vt 0.5534 0.9885 0.0000
vt 0.5538 0.9452 0.0000
vt 0.4426 0.0015 0.0000
vt 0.4426 0.0555 0.0000
vt 0.4816 0.9878 0.0000
vt 0.4820 0.9445 0.0000
vt 0.3873 0.0015 0.0000
vt 0.3873 0.0554 0.0000
vt 0.4098 0.9871 0.0000
vt 0.4103 0.9439 0.0000
vt 0.3320 0.0013 0.0000
vt 0.3320 0.0553 0.0000
vt 0.3381 0.9865 0.0000
vt 0.3385 0.9432 0.0000
vt 0.2767 0.0012 0.0000
vt 0.2767 0.0551 0.0000
vt 0.9103 0.9272 0.0000
vt 0.9107 0.8840 0.0000
vt 0.9825 0.8846 0.0000
vt 0.9820 0.9279 0.0000
vt 0.2213 0.0010 0.0000
vt 0.2213 0.0549 0.0000
vt 0.8385 0.9266 0.0000
vt 0.8389 0.8833 0.0000
vt 0.1660 0.0007 0.0000
vt 0.1660 0.0547 0.0000
vt 0.7667 0.9259 0.0000
vt 0.7671 0.8826 0.0000
vt 0.1107 0.0005 0.0000
vt 0.1107 0.0545 0.0000
vt 0.6949 0.9252 0.0000
vt 0.6953 0.8819 0.0000
vt 0.0553 0.0003 0.0000
vt 0.0553 0.0542 0.0000
vt 0.6231 0.9246 0.0000
vt 0.6235 0.8813 0.0000
vt 0.0000 0.0000 0.0000
vt 0.0000 0.0540 0.0000
vt 0.5513 0.9239 0.0000
vt 0.5517 0.8806 0.0000
vt 0.9416 0.0002 0.0000
vt 0.9971 0.0000 0.0000
vt 0.9971 0.0542 0.0000
vt 0.9416 0.0544 0.0000
vt 0.2220 0.8580 0.0000
vt 0.3115 0.8645 0.0000
vt 0.2934 0.9432 0.0000
vt 0.2072 0.9106 0.0000
vt 0.2176 0.9844 0.0000
vt 0.1860 0.9338 0.0000
vt 0.1352 0.9803 0.0000
vt 0.1478 0.9414 0.0000
vt 0.1174 0.9213 0.0000
vt 0.0460 0.9306 0.0000
vt 0.0921 0.8899 0.0000
vt 0.0142 0.8852 0.0000
vt 0.0937 0.8408 0.0000
vt 0.0202 0.8257 0.0000
vt 0.0918 0.7535 0.0000
vt 0.1232 0.8134 0.0000
vt 0.1666 0.7993 0.0000
vt 0.1756 0.7286 0.0000
vt 0.1983 0.8098 0.0000
vt 0.2675 0.7647 0.0000
vt 0.1292 0.9044 0.0000
vt 0.1121 0.8824 0.0000
vt 0.1235 0.8456 0.0000
vt 0.1369 0.8359 0.0000
vt 0.1580 0.8292 0.0000
vt 0.1718 0.8367 0.0000
vt 0.1865 0.8679 0.0000
vt 0.1792 0.8946 0.0000
vt 0.1449 0.8694 0.0000
# 162 texture coords

g Area_low
usemtl default
s off
f 1/1/1 2/2/1 3/3/1 
f 2/2/1 4/4/1 3/3/1 
f 4/4/1 5/5/1 3/3/1 
f 5/5/1 6/6/1 3/3/1 
f 6/6/1 7/7/1 3/3/1 
f 7/7/1 8/8/1 3/3/1 
f 8/8/1 9/9/1 3/3/1 
f 9/9/1 10/10/1 3/3/1 
f 10/10/1 11/11/1 3/3/1 
f 11/11/1 12/12/1 3/3/1 
f 12/12/1 13/13/1 3/3/1 
f 13/13/1 14/14/1 3/3/1 
f 14/14/1 15/15/1 3/3/1 
f 15/15/1 16/16/1 3/3/1 
f 16/16/1 17/17/1 3/3/1 
f 17/17/1 18/18/1 3/3/1 
f 18/18/1 19/19/1 3/3/1 
f 19/19/1 1/1/1 3/3/1 
f 20/20/1 21/21/1 22/22/1 23/23/1 
f 21/21/1 24/24/1 25/25/1 22/22/1 
f 24/24/1 26/26/1 27/27/1 25/25/1 
f 26/26/1 28/28/2 29/29/2 27/27/1 
f 28/28/2 30/30/1 31/31/1 29/29/2 
f 30/30/1 32/32/1 33/33/1 31/31/1 
f 32/32/1 34/34/2 35/35/2 33/33/1 
f 34/34/2 36/36/2 37/37/2 35/35/2 
f 36/36/2 38/38/1 39/39/1 37/37/2 
f 38/38/1 40/40/1 41/41/1 39/39/1 
f 40/40/1 42/42/1 43/43/1 41/41/1 
f 42/42/1 44/44/1 45/45/1 43/43/1 
f 44/44/1 46/46/1 47/47/1 45/45/1 
f 46/46/1 48/48/1 49/49/1 47/47/1 
f 48/48/1 50/50/1 51/51/1 49/49/1 
f 50/50/1 52/52/1 53/53/1 51/51/1 
f 52/52/1 54/54/1 55/55/1 53/53/1 
f 54/54/1 20/20/1 23/23/1 55/55/1 
f 56/56/3 21/57/3 20/58/4 57/59/4 
f 17/60/5 16/61/6 23/62/6 22/63/5 
f 58/64/7 24/65/7 21/57/3 56/56/3 
f 18/66/8 17/60/5 22/63/5 25/67/8 
f 59/68/9 26/69/9 24/70/7 58/71/7 
f 19/72/10 18/66/8 25/67/8 27/73/10 
f 60/74/11 28/75/11 26/69/9 59/68/9 
f 1/76/12 19/72/10 27/73/10 29/77/12 
f 61/78/13 30/79/13 28/75/11 60/74/11 
f 2/80/14 1/76/12 29/77/12 31/81/14 
f 62/82/15 32/83/15 30/79/13 61/78/13 
f 4/84/16 2/80/14 31/81/14 33/85/16 
f 63/86/17 34/87/17 32/83/15 62/82/15 
f 5/88/18 4/84/16 33/85/16 35/89/18 
f 64/90/19 36/91/19 34/87/17 63/86/17 
f 6/92/20 5/88/18 35/89/18 37/93/20 
f 65/94/6 38/95/6 36/91/19 64/90/19 
f 7/96/4 6/92/20 37/93/20 39/97/4 
f 66/98/5 40/99/5 38/95/6 65/94/6 
f 8/100/3 7/96/4 39/97/4 41/101/3 
f 67/102/8 42/103/8 40/99/5 66/98/5 
f 9/104/7 8/100/3 41/101/3 43/105/7 
f 68/106/10 44/107/10 42/108/8 67/109/8 
f 10/110/9 9/104/7 43/105/7 45/111/9 
f 69/112/12 46/113/12 44/107/10 68/106/10 
f 11/114/11 10/110/9 45/111/9 47/115/11 
f 70/116/14 48/117/14 46/113/12 69/112/12 
f 12/118/13 11/114/11 47/115/11 49/119/13 
f 71/120/16 50/121/16 48/117/14 70/116/14 
f 13/122/15 12/118/13 49/119/13 51/123/15 
f 72/124/18 52/125/18 50/121/16 71/120/16 
f 14/126/17 13/122/15 51/123/15 53/127/17 
f 73/128/20 54/129/20 52/125/18 72/124/18 
f 15/130/19 14/131/17 53/132/17 55/133/19 
f 57/59/4 20/58/4 54/129/20 73/128/20 
f 16/61/6 15/130/19 55/133/19 23/62/6 
s 1
f 74/134/21 75/135/22 76/136/23 77/137/24 
f 77/137/24 76/136/23 78/138/25 79/139/26 
f 79/139/26 78/138/25 80/140/27 81/141/28 
f 82/142/29 81/141/28 80/140/27 83/143/30 
f 84/144/31 82/142/29 83/143/30 85/145/32 
f 86/146/33 84/144/31 85/145/32 87/147/34 
f 86/146/33 87/147/34 88/148/35 89/149/36 
f 90/150/37 89/149/36 88/148/35 91/151/38 
f 92/152/39 90/150/37 91/151/38 93/153/40 
f 74/134/21 92/152/39 93/153/40 75/135/22 
f 94/154/41 79/139/26 81/141/28 82/142/29 
f 95/155/42 94/154/41 82/142/29 84/144/31 
f 95/155/42 84/144/31 86/146/33 96/156/43 
f 96/156/43 86/146/33 89/149/36 97/157/44 
f 98/158/45 97/157/44 89/149/36 90/150/37 
f 99/159/46 98/158/45 90/150/37 92/152/39 
f 99/159/46 92/152/39 74/134/21 100/160/47 
f 100/160/47 74/134/21 77/137/24 101/161/48 
f 101/161/48 77/137/24 79/139/26 94/154/41 
f 97/157/44 98/158/45 102/162/49 
f 98/158/45 99/159/46 102/162/49 
f 99/159/46 100/160/47 102/162/49 
f 100/160/47 101/161/48 102/162/49 
f 101/161/48 94/154/41 102/162/49 
f 94/154/41 95/155/42 102/162/49 
f 95/155/42 96/156/43 102/162/49 
f 96/156/43 97/157/44 102/162/49 
# 73 polygons - 26 triangles

